<svg width="520" height="360" viewBox="0 0 520 360" xmlns="http://www.w3.org/2000/svg" font-family="'JetBrains Mono','SFMono-Regular',Consolas,Menlo,monospace">
  <defs>
    <linearGradient id="bgGrad" x1="0%" y1="0%" x2="100%" y2="100%">
      <stop offset="0%" stop-color="#1a1b26"/>
      <stop offset="100%" stop-color="#181926"/>
    </linearGradient>
    <clipPath id="clip">
      <rect x="0.5" y="0.5" width="519" height="359" rx="10"/>
    </clipPath>
  </defs>

  <g clip-path="url(#clip)">
    <rect x="0.5" y="0.5" width="519" height="359" rx="10" fill="url(#bgGrad)" stroke="#292e42"/>

    <!-- titlebar -->
    <rect x="0" y="0" width="520" height="32" fill="#16161e"/>
    <circle cx="20" cy="16" r="5.5" fill="#f7768e"/>
    <circle cx="38" cy="16" r="5.5" fill="#e0af68"/>
    <circle cx="56" cy="16" r="5.5" fill="#9ece6a"/>
    <text x="260" y="20" text-anchor="middle" font-size="12" fill="#565f89">guest@SudoAnirudh: ~</text>
    <line x1="0" y1="32" x2="520" y2="32" stroke="#292e42"/>

    <!-- prompt: whoami -->
    <text x="24" y="58" font-size="13" fill="#c0caf5">
      <tspan fill="#7aa2f7">$</tspan> <tspan fill="#a9b1d6">whoami</tspan>
    </text>
    <text x="24" y="78" font-size="14" font-weight="600" fill="#bb9af7">Anirudh S <tspan fill="#565f89" font-weight="400" font-size="12">@SudoAnirudh &#183; 5.4y on GitHub</tspan></text>

    <!-- prompt: git stats -->
    <text x="24" y="112" font-size="13" fill="#c0caf5">
      <tspan fill="#7aa2f7">$</tspan> <tspan fill="#a9b1d6">git stats --global</tspan>
    </text>

    <text x="24" y="136" font-size="13"><tspan fill="#565f89">repos...........</tspan><tspan fill="#bb9af7">59</tspan></text>
    <text x="24" y="156" font-size="13"><tspan fill="#565f89">commits (1y)....</tspan><tspan fill="#7aa2f7">1,494</tspan></text>
    <text x="24" y="176" font-size="13"><tspan fill="#565f89">stars...........</tspan><tspan fill="#e0af68">9</tspan></text>
    <text x="24" y="196" font-size="13"><tspan fill="#565f89">followers.......</tspan><tspan fill="#f7768e">45</tspan></text>

    <text x="270" y="136" font-size="13"><tspan fill="#565f89">loc++...........</tspan><tspan fill="#9ece6a">2,966,954</tspan></text>
    <text x="270" y="156" font-size="13"><tspan fill="#565f89">loc--...........</tspan><tspan fill="#f7768e">102,725</tspan></text>

    <!-- prompt: streak -->
    <text x="24" y="228" font-size="13" fill="#c0caf5">
      <tspan fill="#7aa2f7">$</tspan> <tspan fill="#a9b1d6">streak --check</tspan>
    </text>
    <text x="24" y="250" font-size="13">
      <tspan fill="#565f89">current...</tspan><tspan fill="#e0af68">110d</tspan>
      <tspan fill="#565f89" dx="18">longest...</tspan><tspan fill="#9ece6a">110d</tspan>
      <tspan fill="#565f89" dx="18">last...</tspan><tspan fill="#c0caf5">2026-07-10</tspan>
    </text>

    <!-- waveform -->
    <text x="24" y="284" font-size="11" fill="#565f89">contribution waveform &#183; last 52 weeks</text>
    <g transform="translate(24, 290)">
      <rect x="0" y="38" width="6" height="2" rx="1.5" fill="#292e42"><animate attributeName="opacity" values="0;1" dur="0.4s" begin="0.0s" fill="freeze"/></rect><rect x="8" y="37" width="6" height="3" rx="1.5" fill="#3d59a1"><animate attributeName="opacity" values="0;1" dur="0.4s" begin="0.02s" fill="freeze"/></rect><rect x="16" y="37" width="6" height="3" rx="1.5" fill="#3d59a1"><animate attributeName="opacity" values="0;1" dur="0.4s" begin="0.04s" fill="freeze"/></rect><rect x="24" y="37" width="6" height="3" rx="1.5" fill="#3d59a1"><animate attributeName="opacity" values="0;1" dur="0.4s" begin="0.06s" fill="freeze"/></rect><rect x="32" y="37" width="6" height="3" rx="1.5" fill="#3d59a1"><animate attributeName="opacity" values="0;1" dur="0.4s" begin="0.08s" fill="freeze"/></rect><rect x="40" y="37" width="6" height="3" rx="1.5" fill="#3d59a1"><animate attributeName="opacity" values="0;1" dur="0.4s" begin="0.1s" fill="freeze"/></rect><rect x="48" y="37" width="6" height="3" rx="1.5" fill="#3d59a1"><animate attributeName="opacity" values="0;1" dur="0.4s" begin="0.12s" fill="freeze"/></rect><rect x="56" y="37" width="6" height="3" rx="1.5" fill="#3d59a1"><animate attributeName="opacity" values="0;1" dur="0.4s" begin="0.14s" fill="freeze"/></rect><rect x="64" y="37" width="6" height="3" rx="1.5" fill="#3d59a1"><animate attributeName="opacity" values="0;1" dur="0.4s" begin="0.16s" fill="freeze"/></rect><rect x="72" y="37" width="6" height="3" rx="1.5" fill="#3d59a1"><animate attributeName="opacity" values="0;1" dur="0.4s" begin="0.18s" fill="freeze"/></rect><rect x="80" y="37" width="6" height="3" rx="1.5" fill="#3d59a1"><animate attributeName="opacity" values="0;1" dur="0.4s" begin="0.2s" fill="freeze"/></rect><rect x="88" y="37" width="6" height="3" rx="1.5" fill="#3d59a1"><animate attributeName="opacity" values="0;1" dur="0.4s" begin="0.22s" fill="freeze"/></rect><rect x="96" y="31" width="6" height="9" rx="1.5" fill="#3d59a1"><animate attributeName="opacity" values="0;1" dur="0.4s" begin="0.24s" fill="freeze"/></rect><rect x="104" y="37" width="6" height="3" rx="1.5" fill="#3d59a1"><animate attributeName="opacity" values="0;1" dur="0.4s" begin="0.26s" fill="freeze"/></rect><rect x="112" y="37" width="6" height="3" rx="1.5" fill="#3d59a1"><animate attributeName="opacity" values="0;1" dur="0.4s" begin="0.28s" fill="freeze"/></rect><rect x="120" y="22" width="6" height="18" rx="1.5" fill="#7aa2f7"><animate attributeName="opacity" values="0;1" dur="0.4s" begin="0.3s" fill="freeze"/></rect><rect x="128" y="34" width="6" height="6" rx="1.5" fill="#3d59a1"><animate attributeName="opacity" values="0;1" dur="0.4s" begin="0.32s" fill="freeze"/></rect><rect x="136" y="37" width="6" height="3" rx="1.5" fill="#3d59a1"><animate attributeName="opacity" values="0;1" dur="0.4s" begin="0.34s" fill="freeze"/></rect><rect x="144" y="33" width="6" height="7" rx="1.5" fill="#3d59a1"><animate attributeName="opacity" values="0;1" dur="0.4s" begin="0.36s" fill="freeze"/></rect><rect x="152" y="36" width="6" height="4" rx="1.5" fill="#3d59a1"><animate attributeName="opacity" values="0;1" dur="0.4s" begin="0.38s" fill="freeze"/></rect><rect x="160" y="37" width="6" height="3" rx="1.5" fill="#3d59a1"><animate attributeName="opacity" values="0;1" dur="0.4s" begin="0.4s" fill="freeze"/></rect><rect x="168" y="38" width="6" height="2" rx="1.5" fill="#292e42"><animate attributeName="opacity" values="0;1" dur="0.4s" begin="0.42s" fill="freeze"/></rect><rect x="176" y="30" width="6" height="10" rx="1.5" fill="#3d59a1"><animate attributeName="opacity" values="0;1" dur="0.4s" begin="0.44s" fill="freeze"/></rect><rect x="184" y="32" width="6" height="8" rx="1.5" fill="#3d59a1"><animate attributeName="opacity" values="0;1" dur="0.4s" begin="0.46s" fill="freeze"/></rect><rect x="192" y="37" width="6" height="3" rx="1.5" fill="#3d59a1"><animate attributeName="opacity" values="0;1" dur="0.4s" begin="0.48s" fill="freeze"/></rect><rect x="200" y="35" width="6" height="5" rx="1.5" fill="#3d59a1"><animate attributeName="opacity" values="0;1" dur="0.4s" begin="0.5s" fill="freeze"/></rect><rect x="208" y="37" width="6" height="3" rx="1.5" fill="#3d59a1"><animate attributeName="opacity" values="0;1" dur="0.4s" begin="0.52s" fill="freeze"/></rect><rect x="216" y="37" width="6" height="3" rx="1.5" fill="#3d59a1"><animate attributeName="opacity" values="0;1" dur="0.4s" begin="0.54s" fill="freeze"/></rect><rect x="224" y="33" width="6" height="7" rx="1.5" fill="#3d59a1"><animate attributeName="opacity" values="0;1" dur="0.4s" begin="0.56s" fill="freeze"/></rect><rect x="232" y="28" width="6" height="12" rx="1.5" fill="#7aa2f7"><animate attributeName="opacity" values="0;1" dur="0.4s" begin="0.58s" fill="freeze"/></rect><rect x="240" y="22" width="6" height="18" rx="1.5" fill="#7aa2f7"><animate attributeName="opacity" values="0;1" dur="0.4s" begin="0.6s" fill="freeze"/></rect><rect x="248" y="34" width="6" height="6" rx="1.5" fill="#3d59a1"><animate attributeName="opacity" values="0;1" dur="0.4s" begin="0.62s" fill="freeze"/></rect><rect x="256" y="23" width="6" height="17" rx="1.5" fill="#7aa2f7"><animate attributeName="opacity" values="0;1" dur="0.4s" begin="0.64s" fill="freeze"/></rect><rect x="264" y="27" width="6" height="13" rx="1.5" fill="#7aa2f7"><animate attributeName="opacity" values="0;1" dur="0.4s" begin="0.66s" fill="freeze"/></rect><rect x="272" y="32" width="6" height="8" rx="1.5" fill="#3d59a1"><animate attributeName="opacity" values="0;1" dur="0.4s" begin="0.68s" fill="freeze"/></rect><rect x="280" y="25" width="6" height="15" rx="1.5" fill="#7aa2f7"><animate attributeName="opacity" values="0;1" dur="0.4s" begin="0.7s" fill="freeze"/></rect><rect x="288" y="32" width="6" height="8" rx="1.5" fill="#3d59a1"><animate attributeName="opacity" values="0;1" dur="0.4s" begin="0.72s" fill="freeze"/></rect><rect x="296" y="21" width="6" height="19" rx="1.5" fill="#7aa2f7"><animate attributeName="opacity" values="0;1" dur="0.4s" begin="0.74s" fill="freeze"/></rect><rect x="304" y="6" width="6" height="34" rx="1.5" fill="#9ece6a"><animate attributeName="opacity" values="0;1" dur="0.4s" begin="0.76s" fill="freeze"/></rect><rect x="312" y="20" width="6" height="20" rx="1.5" fill="#7aa2f7"><animate attributeName="opacity" values="0;1" dur="0.4s" begin="0.78s" fill="freeze"/></rect><rect x="320" y="28" width="6" height="12" rx="1.5" fill="#7aa2f7"><animate attributeName="opacity" values="0;1" dur="0.4s" begin="0.8s" fill="freeze"/></rect><rect x="328" y="29" width="6" height="11" rx="1.5" fill="#3d59a1"><animate attributeName="opacity" values="0;1" dur="0.4s" begin="0.82s" fill="freeze"/></rect><rect x="336" y="29" width="6" height="11" rx="1.5" fill="#3d59a1"><animate attributeName="opacity" values="0;1" dur="0.4s" begin="0.84s" fill="freeze"/></rect><rect x="344" y="32" width="6" height="8" rx="1.5" fill="#3d59a1"><animate attributeName="opacity" values="0;1" dur="0.4s" begin="0.86s" fill="freeze"/></rect><rect x="352" y="34" width="6" height="6" rx="1.5" fill="#3d59a1"><animate attributeName="opacity" values="0;1" dur="0.4s" begin="0.88s" fill="freeze"/></rect><rect x="360" y="32" width="6" height="8" rx="1.5" fill="#3d59a1"><animate attributeName="opacity" values="0;1" dur="0.4s" begin="0.9s" fill="freeze"/></rect><rect x="368" y="19" width="6" height="21" rx="1.5" fill="#7aa2f7"><animate attributeName="opacity" values="0;1" dur="0.4s" begin="0.92s" fill="freeze"/></rect><rect x="376" y="24" width="6" height="16" rx="1.5" fill="#7aa2f7"><animate attributeName="opacity" values="0;1" dur="0.4s" begin="0.94s" fill="freeze"/></rect><rect x="384" y="21" width="6" height="19" rx="1.5" fill="#7aa2f7"><animate attributeName="opacity" values="0;1" dur="0.4s" begin="0.96s" fill="freeze"/></rect><rect x="392" y="12" width="6" height="28" rx="1.5" fill="#9ece6a"><animate attributeName="opacity" values="0;1" dur="0.4s" begin="0.98s" fill="freeze"/></rect><rect x="400" y="12" width="6" height="28" rx="1.5" fill="#9ece6a"><animate attributeName="opacity" values="0;1" dur="0.4s" begin="1.0s" fill="freeze"/></rect><rect x="408" y="7" width="6" height="33" rx="1.5" fill="#9ece6a"><animate attributeName="opacity" values="0;1" dur="0.4s" begin="1.02s" fill="freeze"/></rect><rect x="416" y="19" width="6" height="21" rx="1.5" fill="#7aa2f7"><animate attributeName="opacity" values="0;1" dur="0.4s" begin="1.04s" fill="freeze"/></rect>
    </g>

    <!-- cursor line -->
    <text x="24" y="340" font-size="13" fill="#c0caf5">
      <tspan fill="#7aa2f7">$</tspan>
      <rect x="34" y="329" width="8" height="14" fill="#c0caf5">
        <animate attributeName="opacity" values="1;1;0;0;1" keyTimes="0;0.4;0.5;0.9;1" dur="1.1s" repeatCount="indefinite"/>
      </rect>
    </text>
    <text x="496" y="340" font-size="10" fill="#414868" text-anchor="end">2026-07-10 06:58 UTC</text>
  </g>
</svg>
